<svg xmlns="http://www.w3.org/2000/svg" id="Capa_1" data-name="Capa 1" viewBox="18.59 160.01 474.51 191.98">
  <defs>
    <style>
      .cls-1 {
        fill: #fff;
        stroke-width: 0px;
      }
    </style>
  </defs>
  <path class="cls-1" d="M182.95,283.34c-1.22-.88-2.55-1.57-3.94-2.15-1.65-.69-1.92-1.09-1.92-2.89,0-2.28.02-4.56.02-6.84,0-12.38-.02-24.76-.03-37.14,0-2.33.2-2.67,2.38-3.55,7.06-2.88,11.06-10.48,9.38-18.15-2.17-9.94-13.16-15.64-22.62-10.69-1.41.74-2.83,1.47-4.21,2.26-.62.35-1.08.3-1.7-.05-10.35-5.99-20.71-11.97-31.07-17.94-2.35-1.36-4.71-2.71-7.07-4.06-2.04-1.18-2.71-2.96-2.42-5.24.32-2.62-.02-5.18-1.14-7.59-1.83-3.92-4.99-6.42-8.88-8.05-4.67-1.96-9.21-1.59-13.57.95-5.73,3.35-9.16,8.93-7.9,16.49.2,1.17-.17,2.1-1.22,2.71-.32.19-.65.38-.97.56-7.18,4.12-14.36,8.23-21.53,12.36-5.52,3.18-11.02,6.39-16.54,9.58-1.58.91-2.07.86-3.46-.26-.09-.08-.19-.16-.29-.23-3.73-2.87-7.95-3.91-12.54-3.03-11.14,2.14-16.91,14.5-10.35,24.7,1.99,3.09,4.92,4.99,8.33,6.23q1,.37,1,1.42v46.7c0,.09-.01.19,0,.28.08.54-.09.84-.67,1.01-.72.2-1.41.5-2.08.82-3.64,1.71-6.45,4.25-8.02,8.02-.8,1.92-1.18,3.94-1.26,6.01-.19,5.09,1.49,9.38,5.53,12.62,1.87,1.5,3.98,2.58,6.27,3.27,3.39,1.02,6.73.85,9.99-.54,1.65-.7,3.13-1.68,4.52-2.81,1-.82,1.33-.84,2.44-.22.16.09.32.18.49.28,6.27,3.62,12.55,7.25,18.82,10.86,6.69,3.85,13.37,7.7,20.07,11.51,1.24.71,1.76,1.62,1.49,2.99-.17.86-.14,1.74-.19,2.76.03.57.02,1.3.11,2.01.09.74.24,1.47.43,2.2,2,7.4,9.65,12.48,17.74,11.31,8.62-1.25,14.84-9.58,13.35-18.2-.05-.31-.04-.62-.07-.93-.07-.73.25-1.27.83-1.68.23-.16.47-.32.71-.45,10.96-6.31,21.92-12.62,32.88-18.93,2-1.15,4-2.32,6-3.47,1.49-.86,1.78-.83,3.1.2.89.69,1.81,1.33,2.8,1.87,2.74,1.49,5.65,2.18,8.76,1.79,3.47-.43,6.53-1.85,9.22-4.06,2.33-1.92,3.91-4.35,4.68-7.29.79-3.06.74-6.12-.04-9.17-.87-3.4-2.78-6.1-5.62-8.16ZM173.28,207.95c4.56,0,8.11,3.57,8.11,8.15s-3.65,8.23-8.11,8.2c-4.53-.03-8.27-3.73-8.27-8.21,0-4.52,3.67-8.15,8.27-8.14ZM158.35,222.23c.04.16,0,.31-.16.39-.16.09-.33.18-.5.26-13.51,7.24-27.02,14.47-40.52,21.73-.56.3-.97.34-1.53.02-2.17-1.23-4.37-2.42-6.58-3.58-.87-.46-1.25-1.08-1.24-2.09.03-5.31,0-10.63,0-15.94,0-.19.02-.38,0-.56-.06-.48.18-.6.6-.56.18.02.38,0,.56,0h48.24c.28,0,.56,0,.84.02.19.01.25.16.29.31ZM119.71,253.96c-.25-1.32.09-1.97,1.36-2.67,2.33-1.27,4.68-2.49,7.02-3.75,7.87-4.21,15.74-8.43,23.61-12.64.81-.44,1.63-.91,2.73-.91-6.08,11.88-12.13,23.7-18.23,35.61-5.24-2.94-10.35-5.82-15.48-8.67-.73-.41-1-1.01-1.04-1.75-.04-.68,0-1.38.06-2.06.1-1.06.16-2.11-.04-3.17ZM99.99,239.46c0,.68-.29,1.11-.88,1.4-1.48.74-2.96,1.48-4.44,2.22-.42.21-.86.37-1.26.62-.43.27-.76.21-1.18-.07-3.19-2.14-6.39-4.27-9.6-6.39-7.31-4.87-14.62-9.73-21.92-14.6-.28-.19-.6-.32-.89-.73h.97c12.73,0,25.47,0,38.2,0,1.15,0,1.04-.18,1.04,1.06,0,4.31,0,8.63,0,12.94,0,1.19-.06,2.37-.04,3.56ZM104.01,247.89c3.8-.17,8.12,3.17,8.14,8.18.02,4.51-3.71,8.2-8.23,8.22-3.96.02-8.23-3.21-8.2-8.27.04-5.32,4.66-8.36,8.29-8.13ZM116.57,187.86c10.26,5.94,20.53,11.87,30.81,17.8,3.24,1.87,6.49,3.74,9.73,5.61.69.4.68.4.53,1.23-.08.43-.11.87-.3,1.33h-1c-15.79,0-31.58,0-47.37,0-1.3,0-1.09.15-1.1-1.08,0-6.59,0-13.18-.02-19.78,0-.68.2-1.05.79-1.38,2.18-1.21,4.34-2.46,6.48-3.74.53-.32.9-.3,1.44,0ZM104.12,167.96c4.45.15,8.05,3.7,8.02,8.19-.02,4.5-3.67,8.1-8.2,8.11-4.25,0-8.29-3.33-8.22-8.19.07-5.38,4.67-8.24,8.4-8.11ZM50.48,211.61c.35-.45.85-.72,1.34-1,6.15-3.53,12.3-7.05,18.44-10.59,6.87-3.96,13.74-7.92,20.62-11.88q1.19-.69,2.41.02c1.99,1.17,3.98,2.35,5.99,3.49.5.28.68.59.68,1.17-.02,6.72-.01,13.44-.01,20.16,0,.91.13.85-.85.85h-23.93c-7.88,0-15.77,0-23.65,0-.39,0-.9.24-1.14-.35-.26-.65-.35-1.27.11-1.86ZM48.67,224.28c.37-.36.62.1.86.26,12.54,8.32,25.07,16.66,37.61,24.98.16.11.31.21.47.32.66.47,1.04,1.07.93,1.92-.42,2.32-.23,4.67-.4,7-.05.72-.35,1.26-1.06,1.63-5.1,2.63-10.18,5.3-15.27,7.95-.64.33-.65.32-1-.36-7.32-14.27-14.63-28.53-21.94-42.8-.14-.27-.55-.56-.2-.9ZM26.39,216.05c.06-4.86,3.95-8.17,8.26-8.12,4.07.04,8.15,3.23,8.14,8.27,0,4.42-3.84,8.18-8.25,8.12-4.77-.06-8.2-3.96-8.15-8.27ZM34.53,304.22c-4.57-.09-8.11-3.52-8.11-8.19,0-5.03,4.08-8.21,8.22-8.18,3.81.02,8.15,3.05,8.16,8.2,0,4.85-3.91,8.13-8.27,8.17ZM45.31,282.07c-1.13.59-2.17.64-3.26-.09-.89-.6-1.91-.92-2.9-1.29-.42-.16-.62-.38-.56-.82.02-.16,0-.31,0-.47v-46.69c0-.22.02-.44,0-.65-.03-.31.13-.46.38-.56,1.07-.43,2.14-.86,3.21-1.31.5-.21.57.16.73.46,1.41,2.75,2.83,5.49,4.24,8.24,5.54,10.81,11.07,21.61,16.61,32.41.14.27.28.56.47.94-1.87.97-3.66,1.91-5.46,2.85-4.49,2.33-8.98,4.65-13.46,6.99ZM88.01,322.33c-8.79-5.06-17.59-10.13-26.38-15.19-3.17-1.82-6.34-3.64-9.5-5.46-.16-.09-.33-.18-.49-.27-1.43-.85-1.65-1.35-1.31-3.01.51-2.48.18-4.9-.59-7.29-.18-.56-.38-1.12-.62-1.67-.16-.38-.13-.6.29-.79.93-.44,1.83-.93,2.75-1.41,4.93-2.56,9.86-5.11,14.79-7.67.25-.13.5-.25.75-.37.47.61,22.35,43.25,22.74,44.34-.89-.34-1.67-.77-2.44-1.21ZM75.29,276.72c-.06-.11-.12-.22-.17-.33-.37-.82-.38-.82.44-1.24,4.99-2.58,9.98-5.16,14.95-7.77.59-.31,1.04-.32,1.62.01,2.23,1.26,4.5,2.44,6.71,3.72.74.43,1.05,1.03,1.13,1.81.02.22.01.44.01.66v22.87h.05v22.96c0,.98-.13,1.17-.97,1.42-.65.2-1.15.02-1.55-.71-.75-1.37-1.44-2.76-2.15-4.15-6.69-13.08-13.38-26.17-20.07-39.25ZM103.98,344.19c-4.56.01-8.24-3.64-8.24-8.19-.02-4.72,4.07-8.04,8.17-8.04,4.07,0,8.23,3.13,8.24,8.06,0,4.5-3.65,8.16-8.17,8.17ZM110.38,319.97c-.68,1.32-.29,1.15-1.8.72-.78-.22-.78-.24-.78-1.09,0-11.84,0-23.68.01-35.52,0-3.63,0-7.25-.02-10.87,0-.95.34-1.64,1.21-2.03,2.26-1.01,4.33-2.35,6.45-3.6.38-.22.68-.29,1.1-.05,5.26,2.94,10.52,5.86,15.78,8.79.08.05.15.11.31.23-1.6,3.12-3.17,6.2-4.75,9.28-5.83,11.38-11.67,22.76-17.51,34.14ZM157.8,292.18c-.03.25,0,.5,0,.95-.17,2.19-.39,4.59-.53,6.98-.04.56-.25.82-.69,1.08-6.09,3.5-12.17,7.01-18.25,10.52-6.59,3.81-13.19,7.62-19.8,11.41-.27.16-.58.67-.95.25-.28-.31.14-.62.27-.9,7.07-13.83,14.16-27.66,21.25-41.49.36-.7.37-.7,1.09-.29,5.42,3.03,10.84,6.07,16.28,9.07,1.01.56,1.48,1.27,1.34,2.41ZM160.99,283.43c-.25-.13-.51-.25-.75-.39-5.42-3.15-10.92-6.17-16.4-9.21-.14-.08-.27-.16-.41-.22-.33-.14-.39-.34-.22-.66.4-.74.78-1.49,1.16-2.24,6.73-13.13,13.46-26.26,20.19-39.39.64-1.24.63-1.24,1.94-.7.43.18.88.33,1.32.47,1.1.34,1.5.81,1.54,1.94.02.75,0,1.5-.02,2.25-.15,6.91.09,13.81-.05,20.71,0,3.22,0,6.43,0,9.65.02,4.22.05,8.43.07,12.65,0,.25.01.5,0,.75-.08,1.23-.46,1.76-1.63,2.11-1.31.39-2.49.97-3.52,1.87-.96.84-2.05,1-3.22.42ZM173.25,304.22c-4.56-.04-8.25-3.72-8.24-8.23.01-4.43,3.75-8.14,8.21-8.14,4.55,0,8.2,3.66,8.2,8.22,0,4.51-3.68,8.18-8.17,8.15Z"/>
  <g>
    <g>
      <path class="cls-1" d="M211.02,269.97c-.33-.33-.49-.71-.49-1.15v-42.77c0-.48.15-.89.46-1.22.31-.33.7-.49,1.19-.49h17.33c6.5,0,11.55,1.55,15.16,4.65,3.6,3.1,5.49,7.55,5.67,13.34.04,1.27.07,2.97.07,5.07s-.02,3.78-.07,5.01c-.44,12.04-7.27,18.06-20.5,18.06h-17.66c-.44,0-.82-.16-1.15-.49ZM229.5,260.58c2.77,0,4.81-.66,6.13-1.98,1.32-1.32,2.02-3.43,2.11-6.33.09-1.27.13-2.92.13-4.94s-.04-3.65-.13-4.88c-.09-2.81-.85-4.89-2.27-6.23-1.43-1.34-3.53-2.01-6.29-2.01h-6.26v26.36h6.59Z"/>
      <path class="cls-1" d="M258.4,269.97c-.33-.33-.49-.71-.49-1.15v-42.84c0-.48.16-.88.49-1.19.33-.31.71-.46,1.15-.46h9.23c.48,0,.88.15,1.19.46.31.31.46.7.46,1.19v34.14h19.77c.48,0,.89.16,1.22.49s.49.74.49,1.22v6.99c0,.48-.16.88-.49,1.19-.33.31-.74.46-1.22.46h-30.64c-.44,0-.82-.16-1.15-.49Z"/>
      <path class="cls-1" d="M301.11,270.01c-.33-.31-.5-.7-.5-1.19v-33.74h-11.6c-.48,0-.89-.15-1.22-.46-.33-.31-.49-.7-.49-1.19v-7.38c0-.48.16-.89.49-1.22.33-.33.74-.49,1.22-.49h35.78c.48,0,.89.16,1.22.49.33.33.49.74.49,1.22v7.38c0,.48-.16.88-.49,1.19-.33.31-.74.46-1.22.46h-11.6v33.74c0,.48-.16.88-.49,1.19-.33.31-.74.46-1.22.46h-9.16c-.48,0-.89-.15-1.22-.46Z"/>
      <path class="cls-1" d="M335.97,266.58c-3.58-3.03-5.48-7.47-5.7-13.31-.04-1.19-.07-3.12-.07-5.8s.02-4.7.07-5.93c.22-5.71,2.14-10.12,5.77-13.21,3.62-3.1,8.53-4.65,14.73-4.65,3.91,0,7.41.64,10.51,1.91,3.1,1.27,5.55,3.12,7.35,5.54,1.8,2.42,2.74,5.27,2.83,8.57,0,.4-.14.72-.43.99-.29.26-.63.4-1.02.4h-9.36c-.62,0-1.07-.12-1.35-.36-.29-.24-.54-.69-.76-1.35-.62-2.15-1.55-3.66-2.8-4.51-1.25-.86-2.91-1.29-4.98-1.29-4.96,0-7.54,2.77-7.71,8.3-.04,1.19-.07,3.01-.07,5.47s.02,4.33.07,5.6c.18,5.54,2.75,8.3,7.71,8.3,2.02,0,3.68-.44,4.98-1.32,1.3-.88,2.23-2.37,2.8-4.48.18-.66.42-1.11.73-1.35.31-.24.77-.36,1.38-.36h9.36c.4,0,.74.13,1.02.4.28.26.43.59.43.99-.09,3.29-1.03,6.15-2.83,8.57-1.8,2.42-4.25,4.26-7.35,5.54-3.1,1.27-6.6,1.91-10.51,1.91-6.28,0-11.21-1.52-14.79-4.55Z"/>
      <path class="cls-1" d="M381.17,267.27c-2.97-2.57-4.58-6.23-4.84-10.97-.04-.57-.07-1.56-.07-2.97s.02-2.39.07-2.97c.26-4.66,1.92-8.29,4.98-10.91,3.05-2.61,7.26-3.92,12.62-3.92s9.57,1.31,12.62,3.92c3.05,2.61,4.71,6.25,4.98,10.91.09,1.14.13,2.13.13,2.97s-.04,1.82-.13,2.97c-.26,4.75-1.88,8.4-4.84,10.97-2.97,2.57-7.22,3.85-12.75,3.85s-9.79-1.29-12.75-3.85ZM397.95,261.14c.88-1.12,1.38-2.84,1.52-5.17.04-.44.07-1.32.07-2.64s-.02-2.2-.07-2.64c-.13-2.28-.64-4-1.52-5.14-.88-1.14-2.22-1.71-4.02-1.71s-3.14.57-4.02,1.71c-.88,1.14-1.38,2.86-1.52,5.14l-.07,2.64.07,2.64c.13,2.33.64,4.05,1.52,5.17.88,1.12,2.22,1.68,4.02,1.68s3.14-.56,4.02-1.68Z"/>
      <path class="cls-1" d="M420.71,267.11c-2.44-2.68-3.75-6.5-3.92-11.47l-.07-2.31.07-2.37c.18-4.79,1.49-8.56,3.95-11.3,2.46-2.75,5.8-4.12,10.02-4.12,3.95,0,7.14,1.27,9.56,3.82v-14.04c0-.48.16-.88.49-1.19.33-.31.71-.46,1.15-.46h8.5c.48,0,.89.15,1.22.46.33.31.49.7.49,1.19v43.49c0,.48-.16.88-.49,1.19-.33.31-.74.46-1.22.46h-7.84c-.44,0-.82-.16-1.15-.49-.33-.33-.49-.71-.49-1.15v-2.04c-2.37,2.9-5.78,4.35-10.21,4.35s-7.61-1.34-10.05-4.02ZM438.8,260.15c.92-1.21,1.43-2.74,1.52-4.58.09-1.23.13-2.06.13-2.5,0-.48-.04-1.3-.13-2.44-.09-1.71-.6-3.13-1.55-4.25-.95-1.12-2.34-1.68-4.19-1.68-1.98,0-3.39.58-4.25,1.75-.86,1.17-1.35,2.78-1.48,4.84l-.07,2.04.07,2.04c.13,2.07.63,3.68,1.48,4.84.86,1.17,2.27,1.75,4.25,1.75s3.3-.6,4.22-1.81Z"/>
      <path class="cls-1" d="M463.12,266.81c-3.08-2.88-4.66-7.06-4.75-12.55v-2.04c.18-5.23,1.8-9.31,4.88-12.26,3.07-2.94,7.23-4.42,12.46-4.42,3.78,0,6.97.76,9.59,2.27,2.61,1.52,4.57,3.6,5.86,6.26,1.3,2.66,1.94,5.68,1.94,9.06v1.65c0,.48-.16.89-.49,1.22-.33.33-.74.49-1.22.49h-20.89v.4c.04,1.98.5,3.57,1.38,4.78.88,1.21,2.13,1.81,3.76,1.81,1.05,0,1.9-.21,2.54-.63.64-.42,1.24-.96,1.81-1.61.39-.44.71-.71.95-.82.24-.11.63-.16,1.15-.16h8.63c.39,0,.74.12,1.02.36.28.24.43.54.43.89,0,1.14-.65,2.48-1.94,4.02s-3.19,2.86-5.67,3.95c-2.48,1.1-5.42,1.65-8.8,1.65-5.36,0-9.58-1.44-12.65-4.32ZM480.98,249.78v-.13c0-2.11-.46-3.74-1.38-4.91-.92-1.16-2.22-1.75-3.89-1.75s-2.96.58-3.86,1.75c-.9,1.16-1.35,2.8-1.35,4.91v.13h10.48Z"/>
    </g>
    <g>
      <path class="cls-1" d="M210.55,311.82v-15.6h3.12l6.28,8.42c.09.11.21.25.34.44.14.19.26.38.39.56.12.18.2.33.25.43h.11v-9.85h3.21v15.6h-3.12l-6.41-8.62c-.15-.21-.31-.45-.48-.71-.17-.26-.29-.46-.36-.59h-.11v9.92h-3.21Z"/>
      <path class="cls-1" d="M233.32,312.09c-1.32,0-2.43-.22-3.32-.67-.89-.45-1.57-1.13-2.02-2.06s-.68-2.1-.68-3.53.23-2.62.68-3.54,1.13-1.6,2.01-2.05c.89-.45,1.98-.67,3.26-.67,1.21,0,2.24.22,3.07.65s1.46,1.1,1.89,2c.42.9.64,2.07.64,3.49v.82h-8.35c.03.7.14,1.29.33,1.77s.49.85.89,1.08c.4.24.94.35,1.6.35.36,0,.69-.05.99-.14.3-.09.55-.23.76-.41.21-.18.38-.41.5-.68.12-.27.18-.58.18-.93h3.09c0,.76-.14,1.42-.41,1.98-.27.56-.65,1.03-1.14,1.4s-1.07.65-1.74.84-1.42.28-2.24.28ZM230.54,304.54h5.05c0-.46-.06-.85-.17-1.18-.11-.33-.27-.61-.47-.82-.2-.21-.44-.37-.72-.47s-.6-.15-.94-.15c-.58,0-1.06.1-1.44.28s-.68.48-.89.86-.34.88-.42,1.47Z"/>
      <path class="cls-1" d="M240.26,311.82l4.34-6.21-4.03-5.75h3.8l2.27,3.59h.11l2.3-3.59h3.57l-4.05,5.73,4.28,6.23h-3.73l-2.59-4.07h-.11l-2.59,4.07h-3.57Z"/>
      <path class="cls-1" d="M258.54,312.09c-.76,0-1.37-.14-1.84-.41-.47-.27-.81-.64-1.02-1.1-.21-.46-.32-.97-.32-1.54v-6.76h-1.48v-2.43h1.59l.59-3.41h2.46v3.41h2.18v2.43h-2.18v6.23c0,.36.08.64.25.83.17.19.44.28.82.28h1.12v2.09c-.18.06-.39.12-.64.17-.24.05-.5.1-.77.14-.27.04-.52.06-.75.06Z"/>
      <path class="cls-1" d="M275.49,312.09c-2.46,0-4.35-.66-5.68-1.97-1.33-1.31-1.99-3.35-1.99-6.11,0-1.83.32-3.35.96-4.54.64-1.19,1.56-2.08,2.78-2.66,1.21-.58,2.67-.88,4.37-.88,1.02,0,1.97.11,2.87.34s1.69.58,2.38,1.05c.69.47,1.23,1.06,1.62,1.76.39.71.58,1.54.58,2.51h-3.43c0-.47-.1-.89-.31-1.25-.2-.36-.49-.67-.85-.91-.36-.24-.78-.42-1.25-.55-.47-.12-.96-.18-1.48-.18-.79,0-1.48.1-2.07.31-.59.2-1.08.52-1.47.93s-.68.94-.88,1.56c-.2.62-.3,1.34-.3,2.16v.68c0,1.14.17,2.07.5,2.8.33.73.83,1.27,1.5,1.63.67.36,1.49.53,2.48.53.82,0,1.54-.13,2.17-.38.63-.25,1.12-.61,1.48-1.08.36-.47.54-1.05.54-1.73v-.16h-4.66v-2.59h8.03v8.44h-2.23l-.3-1.68c-.45.44-.94.8-1.47,1.09s-1.1.5-1.74.65c-.64.14-1.35.22-2.14.22Z"/>
      <path class="cls-1" d="M292.26,312.09c-1.32,0-2.43-.22-3.32-.67-.89-.45-1.57-1.13-2.02-2.06s-.68-2.1-.68-3.53.23-2.62.68-3.54,1.13-1.6,2.01-2.05c.89-.45,1.98-.67,3.26-.67,1.21,0,2.24.22,3.07.65s1.46,1.1,1.89,2c.42.9.64,2.07.64,3.49v.82h-8.35c.03.7.14,1.29.33,1.77s.49.85.89,1.08c.4.24.94.35,1.6.35.36,0,.69-.05.99-.14.3-.09.55-.23.76-.41.21-.18.38-.41.5-.68.12-.27.18-.58.18-.93h3.09c0,.76-.14,1.42-.41,1.98-.27.56-.65,1.03-1.14,1.4s-1.07.65-1.74.84-1.42.28-2.24.28ZM289.48,304.54h5.05c0-.46-.06-.85-.17-1.18-.11-.33-.27-.61-.47-.82-.2-.21-.44-.37-.72-.47s-.6-.15-.94-.15c-.58,0-1.06.1-1.44.28s-.68.48-.89.86-.34.88-.42,1.47Z"/>
      <path class="cls-1" d="M300.56,311.82v-11.96h2.62l.25,1.64h.16c.27-.39.6-.74.99-1.02s.82-.51,1.31-.66c.49-.15,1.02-.23,1.59-.23.79,0,1.48.14,2.07.43.59.29,1.05.74,1.38,1.36.33.62.49,1.43.49,2.43v8.01h-3.16v-7.51c0-.38-.05-.7-.14-.97-.09-.27-.22-.49-.4-.66-.17-.17-.39-.3-.65-.38-.26-.08-.55-.11-.86-.11-.47,0-.89.11-1.27.34s-.67.54-.89.93c-.21.39-.32.85-.32,1.36v6.98h-3.16Z"/>
      <path class="cls-1" d="M320.14,312.09c-1.32,0-2.43-.22-3.32-.67-.89-.45-1.57-1.13-2.02-2.06s-.68-2.1-.68-3.53.23-2.62.68-3.54,1.13-1.6,2.01-2.05c.89-.45,1.98-.67,3.26-.67,1.21,0,2.24.22,3.07.65s1.46,1.1,1.89,2c.42.9.64,2.07.64,3.49v.82h-8.35c.03.7.14,1.29.33,1.77s.49.85.89,1.08c.4.24.94.35,1.6.35.36,0,.69-.05.99-.14.3-.09.55-.23.76-.41.21-.18.38-.41.5-.68.12-.27.18-.58.18-.93h3.09c0,.76-.14,1.42-.41,1.98-.27.56-.65,1.03-1.14,1.4s-1.07.65-1.74.84-1.42.28-2.24.28ZM317.37,304.54h5.05c0-.46-.06-.85-.17-1.18-.11-.33-.27-.61-.47-.82-.2-.21-.44-.37-.72-.47s-.6-.15-.94-.15c-.58,0-1.06.1-1.44.28s-.68.48-.89.86-.34.88-.42,1.47Z"/>
      <path class="cls-1" d="M328.44,311.82v-11.96h2.62l.25,1.87h.16c.15-.39.35-.75.59-1.08.24-.33.55-.59.91-.78.36-.2.79-.3,1.27-.3.26,0,.49.03.71.08.21.05.37.1.48.15v2.87h-.98c-.47,0-.88.06-1.24.19-.36.13-.66.33-.9.6-.24.27-.42.61-.54,1-.11.39-.17.86-.17,1.39v5.98h-3.16Z"/>
      <path class="cls-1" d="M340.48,312.09c-.39,0-.81-.05-1.26-.14-.45-.09-.87-.25-1.26-.49-.39-.23-.72-.58-.97-1.02s-.38-1.02-.38-1.72c0-.83.18-1.52.55-2.07.36-.55.88-.97,1.56-1.29.67-.31,1.48-.53,2.42-.65.94-.12,1.98-.18,3.12-.18v-.89c0-.35-.06-.65-.17-.91-.11-.26-.31-.46-.59-.61-.28-.15-.67-.23-1.17-.23s-.91.06-1.22.18c-.31.12-.53.28-.66.47-.13.19-.19.4-.19.63v.27h-3.07c-.02-.08-.02-.15-.02-.22v-.26c0-.7.21-1.3.64-1.81.42-.51,1.02-.9,1.8-1.17s1.68-.41,2.71-.41c1.11,0,2.04.14,2.79.43.75.29,1.33.71,1.73,1.27.4.56.6,1.27.6,2.12v5.44c0,.27.08.47.24.6s.34.19.54.19h.75v2.07c-.15.08-.39.16-.71.24s-.71.12-1.16.12-.83-.06-1.17-.19c-.34-.13-.63-.31-.85-.55-.23-.23-.39-.52-.48-.85h-.16c-.26.32-.57.6-.94.84-.37.24-.8.43-1.3.57-.49.14-1.06.2-1.7.2ZM341.55,309.7c.42,0,.8-.06,1.14-.19.33-.13.61-.3.84-.52.23-.22.41-.49.53-.81.13-.32.19-.66.19-1.02v-.66c-.85,0-1.61.06-2.27.17-.67.11-1.19.31-1.58.58s-.58.65-.58,1.14c0,.27.07.51.21.71.14.2.33.35.59.45.26.11.57.16.93.16Z"/>
      <path class="cls-1" d="M354.53,312.09c-.76,0-1.37-.14-1.84-.41-.47-.27-.81-.64-1.02-1.1-.21-.46-.32-.97-.32-1.54v-6.76h-1.48v-2.43h1.59l.59-3.41h2.46v3.41h2.18v2.43h-2.18v6.23c0,.36.08.64.25.83.17.19.44.28.82.28h1.12v2.09c-.18.06-.39.12-.64.17-.24.05-.5.1-.77.14-.27.04-.52.06-.75.06Z"/>
      <path class="cls-1" d="M359.2,298.1v-2.73h3.16v2.73h-3.16ZM359.2,311.82v-11.96h3.16v11.96h-3.16Z"/>
      <path class="cls-1" d="M371.23,312.09c-1.3,0-2.41-.22-3.32-.67-.91-.45-1.6-1.14-2.07-2.07s-.71-2.1-.71-3.51.24-2.62.71-3.54,1.16-1.6,2.07-2.05c.91-.45,2.02-.67,3.32-.67s2.45.22,3.35.67c.9.45,1.59,1.13,2.06,2.05s.71,2.1.71,3.54-.24,2.58-.71,3.51-1.16,1.62-2.06,2.07c-.9.45-2.02.67-3.35.67ZM371.23,309.63c.7,0,1.25-.13,1.67-.39.42-.26.72-.65.92-1.18.2-.53.3-1.18.3-1.96v-.55c0-.77-.1-1.43-.3-1.96s-.5-.93-.92-1.19c-.42-.27-.97-.4-1.67-.4s-1.23.13-1.65.4c-.42.27-.72.66-.92,1.19-.2.53-.29,1.18-.29,1.96v.55c0,.77.1,1.43.29,1.96.2.53.5.93.92,1.18s.97.39,1.65.39Z"/>
      <path class="cls-1" d="M380.12,311.82v-11.96h2.62l.25,1.64h.16c.27-.39.6-.74.99-1.02s.82-.51,1.31-.66c.49-.15,1.02-.23,1.59-.23.79,0,1.48.14,2.07.43.59.29,1.05.74,1.38,1.36.33.62.49,1.43.49,2.43v8.01h-3.16v-7.51c0-.38-.05-.7-.14-.97-.09-.27-.22-.49-.4-.66-.17-.17-.39-.3-.65-.38-.26-.08-.55-.11-.86-.11-.47,0-.89.11-1.27.34s-.67.54-.89.93c-.21.39-.32.85-.32,1.36v6.98h-3.16Z"/>
      <path class="cls-1" d="M406.44,312.09c-1.62,0-3.01-.28-4.16-.85-1.15-.57-2.03-1.45-2.63-2.65-.6-1.2-.9-2.72-.9-4.57,0-2.73.67-4.76,2.01-6.08,1.34-1.33,3.23-1.99,5.67-1.99,1.33,0,2.53.23,3.59.68s1.9,1.14,2.51,2.05c.61.91.92,2.05.92,3.43h-3.41c0-.73-.15-1.34-.44-1.84-.29-.5-.71-.88-1.25-1.15-.54-.27-1.16-.4-1.88-.4-.97,0-1.77.19-2.4.57-.63.38-1.09.94-1.39,1.67-.29.74-.44,1.63-.44,2.7v.71c0,1.09.15,2.01.46,2.74.3.74.76,1.29,1.38,1.66.61.37,1.41.56,2.38.56.76,0,1.42-.13,1.98-.39.56-.26.99-.64,1.3-1.14.3-.5.45-1.11.45-1.84h3.28c0,1.38-.3,2.52-.9,3.43-.6.91-1.43,1.59-2.49,2.04-1.06.45-2.27.67-3.64.67Z"/>
      <path class="cls-1" d="M418.04,316.09c-.56,0-1.03-.04-1.4-.12-.37-.08-.61-.14-.72-.17v-2.14h1.39c.38,0,.72-.09,1.02-.26.3-.17.57-.4.8-.68.23-.28.39-.58.5-.9l-4.69-11.96h3.34l2.05,5.53c.09.26.19.58.31.97s.23.79.35,1.21c.12.42.22.78.3,1.1h.11c.06-.21.13-.46.21-.75.08-.29.16-.58.24-.89.08-.3.17-.59.25-.88.08-.28.16-.53.22-.74l1.71-5.55h3.18l-4.07,11.4c-.23.67-.49,1.29-.79,1.88-.3.58-.64,1.1-1.04,1.55s-.86.8-1.4,1.05c-.54.25-1.16.38-1.88.38Z"/>
      <path class="cls-1" d="M435.9,312.09c-.77,0-1.48-.16-2.13-.47s-1.16-.78-1.56-1.42h-.16l-.25,1.62h-2.59v-16.45h3.16v5.8h.14c.24-.35.54-.64.89-.89.35-.24.74-.42,1.18-.53.44-.11.92-.17,1.43-.17.94,0,1.76.22,2.47.66.71.44,1.25,1.12,1.65,2.04.39.92.59,2.1.59,3.54s-.19,2.62-.58,3.55-.94,1.61-1.66,2.06c-.72.45-1.58.67-2.58.67ZM434.92,309.5c.64,0,1.14-.12,1.51-.38.37-.25.64-.63.81-1.13s.25-1.13.25-1.89v-.52c0-.76-.08-1.39-.25-1.9-.17-.51-.44-.89-.81-1.14-.37-.25-.88-.38-1.51-.38-.46,0-.84.08-1.16.24s-.58.39-.78.68c-.21.3-.36.66-.47,1.1s-.16.93-.16,1.46v.41c0,.71.09,1.33.27,1.84.18.52.46.91.84,1.18s.87.41,1.46.41Z"/>
      <path class="cls-1" d="M448.93,312.09c-1.32,0-2.43-.22-3.32-.67-.89-.45-1.57-1.13-2.02-2.06s-.68-2.1-.68-3.53.23-2.62.68-3.54,1.13-1.6,2.01-2.05c.89-.45,1.98-.67,3.26-.67,1.21,0,2.24.22,3.07.65s1.46,1.1,1.89,2c.42.9.64,2.07.64,3.49v.82h-8.35c.03.7.14,1.29.33,1.77s.49.85.89,1.08c.4.24.94.35,1.6.35.36,0,.69-.05.99-.14.3-.09.55-.23.76-.41.21-.18.38-.41.5-.68.12-.27.18-.58.18-.93h3.09c0,.76-.14,1.42-.41,1.98-.27.56-.65,1.03-1.14,1.4s-1.07.65-1.74.84-1.42.28-2.24.28ZM446.16,304.54h5.05c0-.46-.06-.85-.17-1.18-.11-.33-.27-.61-.47-.82-.2-.21-.44-.37-.72-.47s-.6-.15-.94-.15c-.58,0-1.06.1-1.44.28s-.68.48-.89.86-.34.88-.42,1.47Z"/>
      <path class="cls-1" d="M457.24,311.82v-11.96h2.62l.25,1.87h.16c.15-.39.35-.75.59-1.08.24-.33.55-.59.91-.78.36-.2.79-.3,1.27-.3.26,0,.49.03.71.08.21.05.37.1.48.15v2.87h-.98c-.47,0-.88.06-1.24.19-.36.13-.66.33-.9.6-.24.27-.42.61-.54,1-.11.39-.17.86-.17,1.39v5.98h-3.16Z"/>
      <path class="cls-1" d="M469.47,311.82l6-15.6h4.19l6,15.6h-3.66l-1.11-3.07h-6.8l-1.11,3.07h-3.5ZM475.07,306.02h4.84l-1.39-3.84c-.06-.17-.13-.37-.22-.6-.08-.23-.17-.5-.26-.78s-.18-.57-.26-.85c-.08-.28-.16-.53-.24-.76h-.14c-.08.29-.17.63-.3,1.01-.12.39-.24.76-.36,1.11-.12.36-.22.65-.29.88l-1.39,3.84Z"/>
      <path class="cls-1" d="M487.99,311.82v-15.6h3.39v15.6h-3.39Z"/>
    </g>
  </g>
</svg>