<svg width="150" height="60" viewBox="0 0 150 60" fill="none" xmlns="http://www.w3.org/2000/svg">
<g clip-path="url(#clip0_2_2)">
<path d="M51.957 38.5447C51.5713 38.2697 51.1509 38.0541 50.7115 37.8728C50.1899 37.6571 50.1045 37.5321 50.1045 36.9696C50.1045 36.257 50.1109 35.5444 50.1109 34.8318C50.1109 30.9627 50.1045 27.0935 50.1014 23.2244C50.1014 22.4962 50.1646 22.3899 50.8537 22.1149C53.0855 21.2148 54.35 18.8396 53.8189 16.4424C53.1329 13.3359 49.6588 11.5544 46.6684 13.1015C46.2226 13.3327 45.7738 13.5609 45.3375 13.8078C45.1415 13.9172 44.9961 13.9015 44.8001 13.7922C41.5283 11.9201 38.2534 10.0511 34.9784 8.18532C34.2355 7.76028 33.4895 7.33836 32.7435 6.91644C32.0986 6.54765 31.8868 5.99134 31.9785 5.27877C32.0796 4.45993 31.9722 3.65985 31.6181 2.90665C31.0396 1.68152 30.0407 0.900186 28.811 0.390758C27.3347 -0.221806 25.8996 -0.106165 24.5213 0.687668C22.71 1.73465 21.6257 3.47858 22.024 5.84133C22.0872 6.20699 21.9703 6.49765 21.6383 6.68829C21.5372 6.74767 21.4329 6.80705 21.3317 6.86331C19.062 8.15094 16.7923 9.43545 14.5257 10.7262C12.7808 11.7201 11.0421 12.7233 9.29719 13.7203C8.79773 14.0047 8.64283 13.9891 8.20343 13.639C8.17498 13.614 8.14337 13.589 8.11175 13.5671C6.93264 12.6702 5.59864 12.3451 4.14766 12.6202C0.626137 13.289 -1.19785 17.1519 0.875869 20.3397C1.50494 21.3054 2.43116 21.8993 3.50911 22.2868C3.71986 22.3639 3.82523 22.5118 3.82523 22.7306V37.3259C3.82523 37.354 3.82207 37.3852 3.82523 37.4134C3.85052 37.5821 3.79678 37.6759 3.61343 37.729C3.38583 37.7915 3.16771 37.8853 2.95591 37.9853C1.80525 38.5197 0.916964 39.3136 0.420663 40.4918C0.16777 41.0919 0.0476464 41.7232 0.0223571 42.3701C-0.0377048 43.9609 0.49337 45.3017 1.77048 46.3143C2.36161 46.7831 3.02862 47.1206 3.75252 47.3363C4.82415 47.6551 5.87998 47.6019 6.91052 47.1675C7.43211 46.9487 7.89996 46.6425 8.33936 46.2893C8.65547 46.033 8.75979 46.0268 9.11068 46.2205C9.16126 46.2487 9.21184 46.2768 9.26558 46.308C11.2476 47.4394 13.2328 48.5739 15.2149 49.7022C17.3297 50.9054 19.4413 52.1086 21.5593 53.2994C21.9513 53.5213 22.1157 53.8057 22.0303 54.2339C21.9766 54.5027 21.9861 54.7777 21.9703 55.0965C21.9797 55.2746 21.9766 55.5028 22.005 55.7247C22.0335 55.9559 22.0809 56.1841 22.141 56.4122C22.7732 58.725 25.1915 60.3126 27.7489 59.947C30.4738 59.5563 32.44 56.9529 31.969 54.2589C31.9532 54.162 31.9564 54.0651 31.9469 53.9682C31.9247 53.7401 32.0259 53.5713 32.2092 53.4432C32.282 53.3932 32.3578 53.3432 32.4337 53.3025C35.8983 51.3304 39.3629 49.3584 42.8276 47.3863C43.4598 47.0269 44.092 46.6612 44.7243 46.3018C45.1953 46.033 45.2869 46.0424 45.7042 46.3643C45.9856 46.5799 46.2764 46.78 46.5893 46.9487C47.4555 47.4144 48.3754 47.6301 49.3585 47.5082C50.4554 47.3738 51.4227 46.93 52.2731 46.2393C53.0096 45.6392 53.5091 44.8798 53.7525 43.9609C54.0023 43.0046 53.9864 42.0482 53.7399 41.095C53.4649 40.0324 52.8611 39.1886 51.9633 38.5447H51.957ZM48.9001 14.9829C50.3416 14.9829 51.4638 16.0986 51.4638 17.53C51.4638 18.9614 50.31 20.1022 48.9001 20.0928C47.4681 20.0834 46.2859 18.9271 46.2859 17.5269C46.2859 16.1143 47.446 14.9798 48.9001 14.9829ZM44.1805 19.4459C44.1932 19.4959 44.1805 19.5428 44.13 19.5678C44.0794 19.5959 44.0256 19.624 43.9719 19.649C39.7012 21.9118 35.4305 24.1714 31.1629 26.4404C30.9859 26.5341 30.8563 26.5466 30.6792 26.4466C29.9933 26.0622 29.2978 25.6903 28.5992 25.3277C28.3242 25.184 28.2041 24.9902 28.2072 24.6745C28.2167 23.015 28.2072 21.3523 28.2072 19.6928C28.2072 19.6334 28.2135 19.574 28.2072 19.5178C28.1883 19.3677 28.2641 19.3302 28.3969 19.3427C28.4538 19.349 28.517 19.3427 28.5739 19.3427H43.8233C43.9118 19.3427 44.0004 19.3427 44.0889 19.349C44.1489 19.3521 44.1679 19.399 44.1805 19.4459ZM31.9658 29.3625C31.8868 28.95 31.9943 28.7468 32.3958 28.5281C33.1323 28.1311 33.8752 27.7499 34.6149 27.3561C37.1027 26.0403 39.5905 24.7214 42.0784 23.4057C42.3344 23.2681 42.5936 23.1213 42.9414 23.1213C41.0194 26.8341 39.1069 30.5283 37.1786 34.2505C35.5221 33.3317 33.9068 32.4316 32.2851 31.5409C32.0543 31.4127 31.969 31.2252 31.9564 30.9939C31.9437 30.7814 31.9563 30.5627 31.9753 30.3501C32.0069 30.0188 32.0259 29.6907 31.9627 29.3594L31.9658 29.3625ZM25.732 24.8308C25.732 25.0433 25.6404 25.1777 25.4539 25.2684C24.986 25.4996 24.5182 25.7309 24.0503 25.9622C23.9175 26.0278 23.7784 26.0778 23.652 26.1559C23.5161 26.2403 23.4117 26.2216 23.279 26.1341C22.2706 25.4652 21.259 24.7996 20.2443 24.137C17.9335 22.615 15.6227 21.096 13.315 19.574C13.2265 19.5146 13.1253 19.474 13.0337 19.3459H13.3403C17.3645 19.3459 21.3918 19.3459 25.4159 19.3459C25.7795 19.3459 25.7447 19.2896 25.7447 19.6771C25.7447 21.0242 25.7447 22.3743 25.7447 23.7213C25.7447 24.0932 25.7257 24.462 25.732 24.8339V24.8308ZM27.0028 27.4655C28.2041 27.4123 29.5697 28.4562 29.576 30.022C29.5823 31.4315 28.4032 32.5847 26.9744 32.591C25.7226 32.5972 24.3727 31.5878 24.3822 30.0063C24.3949 28.3437 25.8553 27.3936 27.0028 27.4655ZM30.9732 8.70413C34.2166 10.5606 37.4631 12.4139 40.7128 14.2672C41.737 14.8516 42.7643 15.4361 43.7886 16.0205C44.0067 16.1455 44.0035 16.1455 43.9561 16.4049C43.9308 16.5393 43.9213 16.6768 43.8613 16.8206H43.5451C38.5537 16.8206 33.5622 16.8206 28.5708 16.8206C28.1598 16.8206 28.2262 16.8675 28.223 16.4831C28.223 14.4235 28.223 12.3639 28.2167 10.3012C28.2167 10.0886 28.2799 9.97301 28.4664 9.86987C29.1556 9.49171 29.8384 9.10104 30.5149 8.701C30.6824 8.60099 30.7994 8.60724 30.9701 8.701L30.9732 8.70413ZM27.0376 2.48473C28.4443 2.53161 29.5823 3.6411 29.5728 5.04437C29.5665 6.45076 28.4127 7.57588 26.9807 7.57901C25.6372 7.57901 24.3601 6.53828 24.3822 5.01937C24.4044 3.33794 25.8585 2.4441 27.0376 2.48473ZM10.0812 16.1268C10.1918 15.9861 10.3499 15.9018 10.5047 15.8142C12.4489 14.711 14.393 13.6109 16.3339 12.5045C18.5056 11.2669 20.6773 10.0293 22.8522 8.79163C23.103 8.64787 23.357 8.64995 23.6141 8.79789C24.2431 9.16355 24.8722 9.53234 25.5076 9.88862C25.6657 9.97613 25.7226 10.073 25.7226 10.2543C25.7162 12.3545 25.7194 14.4547 25.7194 16.5549C25.7194 16.8393 25.7605 16.8206 25.4507 16.8206H17.886C15.3951 16.8206 12.9009 16.8206 10.4099 16.8206C10.2866 16.8206 10.1254 16.8956 10.0495 16.7112C9.96735 16.5081 9.9389 16.3143 10.0843 16.1299L10.0812 16.1268ZM9.50898 20.0866C9.62595 19.9741 9.70498 20.1178 9.78084 20.1678C13.7449 22.7681 17.7059 25.3746 21.67 27.9749C21.7205 28.0093 21.7679 28.0405 21.8185 28.0749C22.0272 28.2218 22.1473 28.4093 22.1125 28.675C21.9797 29.4 22.0398 30.1345 21.9861 30.8627C21.9703 31.0877 21.8754 31.2565 21.651 31.3721C20.0388 32.1941 18.4329 33.0285 16.8239 33.8567C16.6216 33.9599 16.6184 33.9568 16.5078 33.7442C14.1938 29.2844 11.883 24.8277 9.57221 20.3678C9.52795 20.2835 9.39834 20.1928 9.50898 20.0866ZM2.46593 17.5144C2.4849 15.9955 3.71459 14.961 5.07705 14.9767C6.36364 14.9892 7.65339 15.9861 7.65023 17.5613C7.65023 18.9427 6.43634 20.1178 5.04227 20.0991C3.5344 20.0803 2.45012 18.8614 2.46593 17.5144ZM5.03911 45.0704C3.59446 45.0423 2.47541 43.9703 2.47541 42.5108C2.47541 40.9387 3.76517 39.9449 5.07388 39.9543C6.27828 39.9605 7.65023 40.9075 7.65339 42.517C7.65339 44.0328 6.41737 45.0579 5.03911 45.0704ZM8.44684 38.1478C8.08963 38.3322 7.76087 38.3478 7.4163 38.1197C7.13496 37.9322 6.81252 37.8322 6.49957 37.7165C6.3668 37.6665 6.30357 37.5978 6.32254 37.4602C6.32886 37.4102 6.32254 37.3634 6.32254 37.3134V22.7212C6.32254 22.6525 6.32886 22.5837 6.32254 22.5181C6.31306 22.4212 6.36364 22.3743 6.44266 22.343C6.78091 22.2087 7.11915 22.0743 7.4574 21.9336C7.61545 21.868 7.63758 21.9836 7.68816 22.0774C8.13388 22.9369 8.58277 23.7932 9.02849 24.6527C10.7798 28.0311 12.5279 31.4065 14.2792 34.7818C14.3234 34.8662 14.3677 34.9569 14.4277 35.0756C13.8366 35.3788 13.2708 35.6726 12.7018 35.9663C11.2824 36.6945 9.86304 37.4196 8.44684 38.1509V38.1478ZM21.945 50.7304C19.1663 49.149 16.3845 47.5644 13.6058 45.983C12.6038 45.4142 11.6017 44.8454 10.6027 44.2766C10.5522 44.2485 10.4984 44.2203 10.4478 44.1922C9.9958 43.9265 9.92626 43.7703 10.0337 43.2515C10.195 42.4764 10.0906 41.7201 9.84723 40.9731C9.79033 40.7981 9.7271 40.6231 9.65124 40.4512C9.60066 40.3324 9.61014 40.2637 9.74291 40.2043C10.0369 40.0668 10.3214 39.9136 10.6122 39.7636C12.1707 38.9635 13.7291 38.1666 15.2876 37.3665C15.3666 37.3259 15.4456 37.2884 15.5247 37.2509C15.6732 37.4415 22.5898 50.7679 22.7131 51.1085C22.4318 51.0023 22.1852 50.8679 21.9418 50.7304H21.945ZM17.924 36.4758C17.905 36.4414 17.886 36.407 17.8702 36.3726C17.7533 36.1164 17.7501 36.1164 18.0093 35.9851C19.5867 35.1788 21.1642 34.3724 22.7353 33.5567C22.9218 33.4598 23.064 33.4567 23.2474 33.5598C23.9523 33.9536 24.6699 34.3224 25.3685 34.7225C25.6024 34.8568 25.7004 35.0444 25.7257 35.2882C25.732 35.3569 25.7289 35.4257 25.7289 35.4944V42.642H25.7447V49.8178C25.7447 50.1241 25.7036 50.1834 25.438 50.2616C25.2326 50.3241 25.0745 50.2678 24.9481 50.0397C24.711 49.6115 24.4929 49.1771 24.2684 48.7427C22.1536 44.6547 20.0388 40.5637 17.924 36.4758ZM26.9933 57.5623C25.5519 57.5655 24.3885 56.4247 24.3885 55.0027C24.3822 53.5275 25.6751 52.4899 26.9712 52.4899C28.2578 52.4899 29.5728 53.4682 29.576 55.0089C29.576 56.4153 28.4222 57.5592 26.9933 57.5623ZM29.0165 49.9928C28.8015 50.4053 28.9248 50.3522 28.4475 50.2178C28.2009 50.1491 28.2009 50.1428 28.2009 49.8772C28.2009 46.1768 28.2009 42.4764 28.2041 38.776C28.2041 37.6415 28.2041 36.5101 28.1977 35.3788C28.1977 35.0819 28.3052 34.8662 28.5802 34.7443C29.2947 34.4287 29.949 34.0099 30.6192 33.6192C30.7393 33.5505 30.8341 33.5286 30.9669 33.6036C32.6297 34.5224 34.2924 35.435 35.9552 36.3508C35.9805 36.3664 36.0026 36.3851 36.0532 36.4226C35.5474 37.3977 35.0511 38.3603 34.5517 39.3229C32.7087 42.8796 30.8626 46.4362 29.0165 49.9928ZM44.0067 41.3075C43.9972 41.3857 44.0067 41.4638 44.0067 41.6044C43.9529 42.2889 43.8834 43.039 43.8391 43.7859C43.8265 43.9609 43.7601 44.0422 43.621 44.1234C41.6959 45.2173 39.7739 46.3143 37.8519 47.4113C35.7687 48.602 33.6823 49.7928 31.5928 50.9773C31.5075 51.0273 31.4095 51.1867 31.2925 51.0554C31.204 50.9585 31.3368 50.8616 31.3779 50.7741C33.6128 46.4518 35.8541 42.1295 38.0953 37.8072C38.2091 37.5884 38.2123 37.5884 38.4399 37.7165C40.1532 38.6635 41.8666 39.6136 43.5862 40.5512C43.9055 40.7262 44.0541 40.9481 44.0098 41.3044L44.0067 41.3075ZM45.0151 38.5729C44.9361 38.5322 44.8539 38.4947 44.778 38.451C43.0647 37.4665 41.326 36.5226 39.5937 35.5725C39.5494 35.5475 39.5083 35.5225 39.4641 35.5038C39.3598 35.46 39.3408 35.3975 39.3946 35.2975C39.521 35.0663 39.6411 34.8318 39.7612 34.5974C41.8887 30.4939 44.0162 26.3903 46.1436 22.2868C46.3459 21.8993 46.3428 21.8993 46.7569 22.068C46.8928 22.1243 47.0351 22.1712 47.1742 22.2149C47.5219 22.3212 47.6483 22.4681 47.661 22.8212C47.6673 23.0556 47.661 23.29 47.6547 23.5244C47.6072 25.684 47.6831 27.8405 47.6388 29.997C47.6388 31.0033 47.6388 32.0066 47.6388 33.0129C47.6452 34.3318 47.6547 35.6476 47.661 36.9664C47.661 37.0446 47.6641 37.1227 47.661 37.2008C47.6357 37.5853 47.5156 37.7509 47.1457 37.8603C46.7316 37.9822 46.3586 38.1634 46.033 38.4447C45.7295 38.7073 45.3849 38.7573 45.0151 38.576V38.5729ZM48.8907 45.0704C47.4492 45.0579 46.2827 43.9078 46.2859 42.4983C46.289 41.1138 47.4713 39.9543 48.8812 39.9543C50.3195 39.9543 51.4733 41.0981 51.4733 42.5233C51.4733 43.9328 50.31 45.0798 48.8907 45.0704Z" fill="#01508B"/>
<path d="M60.8301 34.3661C60.7258 34.2629 60.6752 34.1442 60.6752 34.0066V20.6396C60.6752 20.4896 60.7227 20.3615 60.8206 20.2583C60.9186 20.1552 61.0419 20.1052 61.1968 20.1052H66.6751C68.7299 20.1052 70.3262 20.5896 71.4674 21.5585C72.6054 22.5273 73.2029 23.9181 73.2598 25.7277C73.2724 26.1246 73.2819 26.6559 73.2819 27.3122C73.2819 27.9685 73.2756 28.4936 73.2598 28.878C73.1207 32.6409 70.9616 34.5223 66.7794 34.5223H61.1968C61.0577 34.5223 60.9376 34.4723 60.8333 34.3692L60.8301 34.3661ZM66.6719 31.4314C67.5476 31.4314 68.1925 31.2251 68.6097 30.8126C69.027 30.4 69.2483 29.7406 69.2767 28.8342C69.3052 28.4373 69.3178 27.9216 69.3178 27.2903C69.3178 26.659 69.3052 26.1496 69.2767 25.7652C69.2483 24.8869 69.008 24.2369 68.5592 23.8181C68.1071 23.3993 67.4433 23.1899 66.5708 23.1899H64.5919V31.4283H66.6751L66.6719 31.4314Z" fill="#01508B"/>
<path d="M75.8077 34.3661C75.7033 34.2629 75.6528 34.1442 75.6528 34.0067V20.6178C75.6528 20.4677 75.7033 20.3427 75.8077 20.2458C75.912 20.149 76.0321 20.1021 76.1712 20.1021H79.0889C79.2407 20.1021 79.3671 20.149 79.4651 20.2458C79.5631 20.3427 79.6105 20.4646 79.6105 20.6178V31.2876H85.8601C86.0119 31.2876 86.1415 31.3376 86.2458 31.4408C86.3501 31.5439 86.4007 31.672 86.4007 31.822V34.0067C86.4007 34.1567 86.3501 34.2817 86.2458 34.3786C86.1415 34.4755 86.0119 34.5223 85.8601 34.5223H76.1744C76.0353 34.5223 75.9151 34.4723 75.8108 34.3692L75.8077 34.3661Z" fill="#01508B"/>
<path d="M89.309 34.3786C89.2047 34.2817 89.1509 34.1598 89.1509 34.0066V23.4618H85.484C85.3322 23.4618 85.2026 23.4149 85.0983 23.318C84.994 23.2211 84.9434 23.0993 84.9434 22.9461V20.6396C84.9434 20.4896 84.994 20.3615 85.0983 20.2583C85.2026 20.1552 85.3322 20.1052 85.484 20.1052H96.7946C96.9463 20.1052 97.0759 20.1552 97.1803 20.2583C97.2846 20.3615 97.3352 20.4896 97.3352 20.6396V22.9461C97.3352 23.0961 97.2846 23.2211 97.1803 23.318C97.0759 23.4149 96.9463 23.4618 96.7946 23.4618H93.1277V34.0066C93.1277 34.1567 93.0771 34.2817 92.9728 34.3786C92.8684 34.4754 92.7388 34.5223 92.5871 34.5223H89.6915C89.5397 34.5223 89.4101 34.4754 89.3058 34.3786H89.309Z" fill="#01508B"/>
<path d="M100.329 33.3066C99.1971 32.3596 98.5965 30.972 98.5269 29.1468C98.5143 28.7749 98.5048 28.1717 98.5048 27.3341C98.5048 26.4965 98.5111 25.8652 98.5269 25.4808C98.5965 23.6962 99.2034 22.3179 100.351 21.3522C101.495 20.3834 103.047 19.8989 105.007 19.8989C106.243 19.8989 107.35 20.0989 108.33 20.4959C109.31 20.8928 110.084 21.471 110.653 22.2273C111.222 22.9836 111.519 23.8743 111.548 24.9057C111.548 25.0307 111.503 25.1307 111.412 25.2151C111.32 25.2964 111.213 25.3401 111.089 25.3401H108.131C107.935 25.3401 107.792 25.3026 107.704 25.2276C107.612 25.1526 107.533 25.012 107.464 24.8057C107.268 24.1337 106.974 23.6618 106.578 23.3962C106.183 23.1274 105.658 22.993 105.004 22.993C103.436 22.993 102.621 23.8587 102.567 25.587C102.554 25.9589 102.545 26.5277 102.545 27.2966C102.545 28.0654 102.551 28.6498 102.567 29.0468C102.624 30.7782 103.436 31.6408 105.004 31.6408C105.643 31.6408 106.167 31.5033 106.578 31.2282C106.989 30.9532 107.283 30.4875 107.464 29.8281C107.52 29.6218 107.596 29.4812 107.694 29.4062C107.792 29.3312 107.938 29.2937 108.131 29.2937H111.089C111.216 29.2937 111.323 29.3343 111.412 29.4187C111.5 29.4999 111.548 29.6031 111.548 29.7281C111.519 30.7563 111.222 31.6502 110.653 32.4065C110.084 33.1628 109.31 33.7379 108.33 34.1379C107.35 34.5348 106.243 34.7348 105.007 34.7348C103.022 34.7348 101.464 34.2598 100.332 33.3128L100.329 33.3066Z" fill="#01508B"/>
<path d="M114.617 33.5222C113.678 32.719 113.169 31.5751 113.087 30.0937C113.075 29.9156 113.065 29.6062 113.065 29.1655C113.065 28.7249 113.071 28.4186 113.087 28.2373C113.169 26.7809 113.694 25.6464 114.661 24.8276C115.626 24.0119 116.956 23.6024 118.651 23.6024C120.345 23.6024 121.676 24.0119 122.64 24.8276C123.604 25.6433 124.129 26.7809 124.214 28.2373C124.243 28.5936 124.256 28.903 124.256 29.1655C124.256 29.4281 124.243 29.7343 124.214 30.0937C124.132 31.5783 123.62 32.719 122.684 33.5222C121.746 34.3254 120.402 34.7255 118.654 34.7255C116.906 34.7255 115.559 34.3223 114.624 33.5222H114.617ZM119.922 31.6064C120.2 31.2564 120.358 30.7188 120.402 29.9906C120.415 29.8531 120.424 29.5781 120.424 29.1655C120.424 28.753 120.418 28.478 120.402 28.3404C120.361 27.6279 120.2 27.0903 119.922 26.734C119.643 26.3777 119.22 26.1996 118.651 26.1996C118.082 26.1996 117.658 26.3777 117.38 26.734C117.102 27.0903 116.944 27.6279 116.9 28.3404L116.877 29.1655L116.9 29.9906C116.941 30.7188 117.102 31.2564 117.38 31.6064C117.658 31.9564 118.082 32.1315 118.651 32.1315C119.22 32.1315 119.643 31.9564 119.922 31.6064Z" fill="#01508B"/>
<path d="M127.116 33.4722C126.345 32.6346 125.931 31.4408 125.877 29.8875L125.855 29.1655L125.877 28.4248C125.934 26.9278 126.348 25.7495 127.126 24.8932C127.904 24.0337 128.959 23.6056 130.293 23.6056C131.542 23.6056 132.55 24.0025 133.315 24.7994V20.4115C133.315 20.2615 133.366 20.1365 133.47 20.0396C133.575 19.9427 133.695 19.8958 133.834 19.8958H136.521C136.673 19.8958 136.802 19.9427 136.906 20.0396C137.011 20.1365 137.061 20.2584 137.061 20.4115V34.0035C137.061 34.1535 137.011 34.2786 136.906 34.3754C136.802 34.4723 136.673 34.5192 136.521 34.5192H134.042C133.903 34.5192 133.783 34.4692 133.679 34.3661C133.575 34.2629 133.524 34.1442 133.524 34.0067V33.3691C132.775 34.2754 131.697 34.7286 130.297 34.7286C128.896 34.7286 127.891 34.3098 127.12 33.4722H127.116ZM132.835 31.297C133.126 30.9188 133.287 30.4407 133.315 29.8656C133.344 29.4812 133.357 29.2218 133.357 29.0843C133.357 28.9343 133.344 28.678 133.315 28.3217C133.287 27.7873 133.126 27.3435 132.825 26.9934C132.525 26.6434 132.086 26.4684 131.501 26.4684C130.875 26.4684 130.429 26.6496 130.157 27.0153C129.886 27.381 129.731 27.8841 129.69 28.528L129.667 29.1655L129.69 29.8031C129.731 30.45 129.889 30.9532 130.157 31.3158C130.429 31.6814 130.875 31.8627 131.501 31.8627C132.127 31.8627 132.544 31.6752 132.835 31.297Z" fill="#01508B"/>
<path d="M140.523 33.3785C139.549 32.4784 139.05 31.172 139.021 29.4562V28.8186C139.078 27.1841 139.59 25.9089 140.564 24.987C141.534 24.0681 142.849 23.6056 144.503 23.6056C145.698 23.6056 146.706 23.8431 147.534 24.315C148.359 24.7901 148.979 25.4401 149.387 26.2715C149.798 27.1028 150 28.0467 150 29.103V29.6187C150 29.7687 149.949 29.8968 149.845 30C149.741 30.1031 149.611 30.1531 149.459 30.1531H142.856V30.2781C142.868 30.897 143.014 31.3939 143.292 31.772C143.57 32.1502 143.965 32.3377 144.481 32.3377C144.813 32.3377 145.081 32.2721 145.284 32.1408C145.486 32.0096 145.676 31.8408 145.856 31.6376C145.979 31.5001 146.08 31.4158 146.156 31.3814C146.232 31.347 146.355 31.3314 146.52 31.3314H149.248C149.371 31.3314 149.482 31.3689 149.57 31.4439C149.659 31.5189 149.706 31.6126 149.706 31.722C149.706 32.0783 149.501 32.4971 149.093 32.9784C148.685 33.4597 148.084 33.8723 147.3 34.2129C146.516 34.5567 145.587 34.7286 144.519 34.7286C142.824 34.7286 141.49 34.2785 140.52 33.3785H140.523ZM146.169 28.056V28.0154C146.169 27.356 146.023 26.8465 145.732 26.4809C145.442 26.1183 145.031 25.9339 144.503 25.9339C143.975 25.9339 143.567 26.1152 143.283 26.4809C142.998 26.8434 142.856 27.356 142.856 28.0154V28.056H146.169Z" fill="#01508B"/>
<path d="M60.6817 47.4455V42.57H61.668L63.6532 45.2016C63.6816 45.2359 63.7196 45.2797 63.7607 45.3391C63.8049 45.3985 63.8429 45.4578 63.8839 45.5141C63.9219 45.5704 63.9472 45.6172 63.963 45.6485H63.9978V42.57H65.0125V47.4455H64.0262L61.9999 44.7515C61.9525 44.6859 61.9019 44.6109 61.8482 44.5296C61.7944 44.4484 61.7565 44.3858 61.7344 44.3452H61.6996V47.4455H60.6849H60.6817Z" fill="#01508B"/>
<path d="M67.8795 47.5299C67.4622 47.5299 67.1114 47.4612 66.83 47.3205C66.5487 47.1799 66.3337 46.9674 66.1915 46.6767C66.0492 46.3861 65.9765 46.0204 65.9765 45.5735C65.9765 45.1266 66.0492 44.7547 66.1915 44.4671C66.3337 44.1796 66.5487 43.9671 66.8269 43.8264C67.1082 43.6858 67.4528 43.617 67.8574 43.617C68.2399 43.617 68.5655 43.6858 68.8279 43.8202C69.0902 43.9546 69.2894 44.164 69.4253 44.4452C69.5581 44.7265 69.6276 45.0922 69.6276 45.536V45.7923H66.9881C66.9976 46.011 67.0323 46.1954 67.0924 46.3454C67.1525 46.4955 67.2473 46.6111 67.3737 46.683C67.5002 46.758 67.6709 46.7924 67.8795 46.7924C67.9933 46.7924 68.0976 46.7767 68.1925 46.7486C68.2873 46.7205 68.3663 46.6767 68.4327 46.6205C68.4991 46.5642 68.5528 46.4923 68.5908 46.4079C68.6287 46.3236 68.6477 46.2267 68.6477 46.1173H69.6245C69.6245 46.3548 69.5802 46.5611 69.4949 46.7361C69.4095 46.9111 69.2894 47.058 69.1345 47.1737C68.9796 47.2893 68.7963 47.3768 68.5845 47.4362C68.3727 47.4956 68.1356 47.5237 67.8764 47.5237L67.8795 47.5299ZM67.0007 45.1703H68.5971C68.5971 45.0266 68.5781 44.9047 68.5434 44.8015C68.5086 44.6984 68.458 44.6109 68.3948 44.5453C68.3316 44.4796 68.2557 44.4296 68.1672 44.3984C68.0787 44.3671 67.9775 44.3515 67.87 44.3515C67.6867 44.3515 67.535 44.3827 67.4148 44.439C67.2947 44.4953 67.1999 44.589 67.1335 44.7078C67.0671 44.8265 67.026 44.9828 67.0007 45.1672V45.1703Z" fill="#01508B"/>
<path d="M70.0734 47.4455L71.4453 45.5047L70.1714 43.7076H71.3726L72.0902 44.8296H72.125L72.852 43.7076H73.9806L72.7003 45.4985L74.0533 47.4455H72.8741L72.0554 46.1735H72.0206L71.2019 47.4455H70.0734Z" fill="#01508B"/>
<path d="M75.8519 47.5299C75.6117 47.5299 75.4189 47.4862 75.2703 47.4018C75.1217 47.3174 75.0142 47.2018 74.9478 47.058C74.8815 46.9142 74.8467 46.7548 74.8467 46.5767V44.464H74.3788V43.7045H74.8815L75.068 42.6388H75.8456V43.7045H76.5348V44.464H75.8456V46.4111C75.8456 46.5236 75.8709 46.6111 75.9246 46.6705C75.9784 46.7298 76.0637 46.758 76.1839 46.758H76.5379V47.4112C76.481 47.4299 76.4146 47.4487 76.3356 47.4643C76.2597 47.4799 76.1775 47.4955 76.0922 47.508C76.0068 47.5205 75.9278 47.5268 75.8551 47.5268L75.8519 47.5299Z" fill="#01508B"/>
<path d="M81.2101 47.5299C80.4324 47.5299 79.835 47.3237 79.4145 46.9142C78.9941 46.5048 78.7855 45.8673 78.7855 45.0047C78.7855 44.4327 78.8866 43.9577 79.0889 43.5858C79.2912 43.2139 79.5821 42.9357 79.9677 42.7544C80.3502 42.5732 80.8118 42.4794 81.3492 42.4794C81.6716 42.4794 81.9719 42.5138 82.2564 42.5857C82.5409 42.6575 82.7906 42.7669 83.0088 42.9138C83.2269 43.0607 83.3976 43.2451 83.5209 43.4639C83.6442 43.6858 83.7042 43.9452 83.7042 44.2483H82.6199C82.6199 44.1014 82.5883 43.9702 82.5219 43.8577C82.4587 43.7452 82.3671 43.6483 82.2532 43.5733C82.1394 43.4983 82.0067 43.442 81.8581 43.4014C81.7095 43.3639 81.5546 43.3451 81.3903 43.3451C81.1405 43.3451 80.9224 43.3764 80.7359 43.442C80.5494 43.5045 80.3945 43.6045 80.2712 43.7327C80.1479 43.8608 80.0562 44.0264 79.993 44.2202C79.9298 44.414 79.8982 44.639 79.8982 44.8953V45.1078C79.8982 45.4641 79.9519 45.7547 80.0562 45.9829C80.1606 46.211 80.3186 46.3798 80.5304 46.4923C80.7422 46.6048 81.0014 46.658 81.3144 46.658C81.5736 46.658 81.8012 46.6173 82.0004 46.5392C82.1995 46.4611 82.3544 46.3486 82.4682 46.2017C82.582 46.0548 82.6389 45.8735 82.6389 45.661V45.611H81.1658V44.8015H83.7042V47.4393H82.9993L82.9044 46.9142C82.7622 47.0518 82.6073 47.1643 82.4398 47.2549C82.2722 47.3455 82.092 47.4112 81.8897 47.458C81.6874 47.5018 81.463 47.5268 81.2132 47.5268L81.2101 47.5299Z" fill="#01508B"/>
<path d="M86.5114 47.5299C86.0941 47.5299 85.7432 47.4612 85.4619 47.3205C85.1805 47.1799 84.9656 46.9674 84.8233 46.6767C84.6811 46.3861 84.6083 46.0204 84.6083 45.5735C84.6083 45.1266 84.6811 44.7547 84.8233 44.4671C84.9656 44.1796 85.1805 43.9671 85.4587 43.8264C85.74 43.6858 86.0846 43.617 86.4892 43.617C86.8717 43.617 87.1973 43.6858 87.4597 43.8202C87.7221 43.9546 87.9212 44.164 88.0572 44.4452C88.1899 44.7265 88.2595 45.0922 88.2595 45.536V45.7923H85.6199C85.6294 46.011 85.6642 46.1954 85.7242 46.3454C85.7843 46.4955 85.8791 46.6111 86.0056 46.683C86.132 46.758 86.3027 46.7924 86.5114 46.7924C86.6252 46.7924 86.7295 46.7767 86.8243 46.7486C86.9191 46.7205 86.9982 46.6767 87.0646 46.6205C87.1309 46.5642 87.1847 46.4923 87.2226 46.4079C87.2606 46.3236 87.2795 46.2267 87.2795 46.1173H88.2563C88.2563 46.3548 88.2121 46.5611 88.1267 46.7361C88.0414 46.9111 87.9212 47.058 87.7663 47.1737C87.6114 47.2893 87.4281 47.3768 87.2163 47.4362C87.0045 47.4956 86.7674 47.5237 86.5082 47.5237L86.5114 47.5299ZM85.6326 45.1703H87.2289C87.2289 45.0266 87.21 44.9047 87.1752 44.8015C87.1404 44.6984 87.0899 44.6109 87.0266 44.5453C86.9634 44.4796 86.8875 44.4296 86.799 44.3984C86.7105 44.3671 86.6094 44.3515 86.5019 44.3515C86.3185 44.3515 86.1668 44.3827 86.0467 44.439C85.9265 44.4953 85.8317 44.589 85.7653 44.7078C85.6989 44.8265 85.6578 44.9828 85.6326 45.1672V45.1703Z" fill="#01508B"/>
<path d="M89.1351 47.4455V43.7076H89.9633L90.0424 44.2202H90.0929C90.1783 44.0983 90.2826 43.9889 90.4059 43.9014C90.5292 43.8139 90.6651 43.742 90.82 43.6951C90.9749 43.6483 91.1424 43.6233 91.3226 43.6233C91.5724 43.6233 91.7905 43.667 91.977 43.7576C92.1635 43.8483 92.3089 43.9889 92.4132 44.1827C92.5175 44.3765 92.5681 44.6296 92.5681 44.9421V47.4455H91.5692V45.0984C91.5692 44.9797 91.5534 44.8796 91.5249 44.7953C91.4965 44.7109 91.4554 44.6421 91.3985 44.589C91.3448 44.5359 91.2752 44.4952 91.193 44.4702C91.1108 44.4452 91.0191 44.4358 90.9212 44.4358C90.7726 44.4358 90.6398 44.4702 90.5197 44.5421C90.3996 44.614 90.3079 44.7109 90.2383 44.8328C90.172 44.9546 90.1372 45.0984 90.1372 45.2578V47.4393H89.1383L89.1351 47.4455Z" fill="#01508B"/>
<path d="M95.3247 47.5299C94.9074 47.5299 94.5565 47.4612 94.2751 47.3205C93.9938 47.1799 93.7788 46.9674 93.6366 46.6767C93.4943 46.3861 93.4216 46.0204 93.4216 45.5735C93.4216 45.1266 93.4943 44.7547 93.6366 44.4671C93.7788 44.1796 93.9938 43.9671 94.272 43.8264C94.5533 43.6858 94.8979 43.617 95.3025 43.617C95.685 43.617 96.0106 43.6858 96.273 43.8202C96.5354 43.9546 96.7345 44.164 96.8705 44.4452C97.0032 44.7265 97.0728 45.0922 97.0728 45.536V45.7923H94.4332C94.4427 46.011 94.4775 46.1954 94.5375 46.3454C94.5976 46.4955 94.6924 46.6111 94.8189 46.683C94.9453 46.758 95.116 46.7924 95.3247 46.7924C95.4385 46.7924 95.5428 46.7767 95.6376 46.7486C95.7324 46.7205 95.8115 46.6767 95.8779 46.6205C95.9442 46.5642 95.998 46.4923 96.0359 46.4079C96.0738 46.3236 96.0928 46.2267 96.0928 46.1173H97.0696C97.0696 46.3548 97.0253 46.5611 96.94 46.7361C96.8546 46.9111 96.7345 47.058 96.5796 47.1737C96.4247 47.2893 96.2414 47.3768 96.0296 47.4362C95.8178 47.4956 95.5807 47.5237 95.3215 47.5237L95.3247 47.5299ZM94.449 45.1703H96.0454C96.0454 45.0266 96.0264 44.9047 95.9917 44.8015C95.9569 44.6984 95.9063 44.6109 95.8431 44.5453C95.7799 44.4796 95.704 44.4296 95.6155 44.3984C95.527 44.3671 95.4258 44.3515 95.3183 44.3515C95.135 44.3515 94.9832 44.3827 94.8631 44.439C94.743 44.4953 94.6482 44.589 94.5818 44.7078C94.5154 44.8265 94.4743 44.9828 94.449 45.1672V45.1703Z" fill="#01508B"/>
<path d="M97.9484 47.4456V43.7077H98.7766L98.8556 44.2921H98.9062C98.9536 44.1702 99.0169 44.0577 99.0927 43.9546C99.1686 43.8514 99.2666 43.7702 99.3804 43.7108C99.4942 43.6483 99.6301 43.617 99.7819 43.617C99.8641 43.617 99.9368 43.6264 100.006 43.642C100.073 43.6577 100.123 43.6733 100.158 43.6889V44.5859H99.8483C99.6997 44.5859 99.5701 44.6046 99.4563 44.6453C99.3425 44.6859 99.2476 44.7484 99.1718 44.8328C99.0959 44.9172 99.039 45.0234 99.0011 45.1453C98.9663 45.2672 98.9473 45.4141 98.9473 45.5797V47.4487H97.9484V47.4456Z" fill="#01508B"/>
<path d="M101.754 47.5299C101.631 47.5299 101.498 47.5143 101.356 47.4862C101.214 47.4581 101.081 47.4081 100.958 47.333C100.835 47.2612 100.73 47.1518 100.651 47.0143C100.572 46.8767 100.531 46.6955 100.531 46.4767C100.531 46.2173 100.588 46.0017 100.705 45.8298C100.819 45.6579 100.983 45.5266 101.198 45.4266C101.41 45.3297 101.666 45.261 101.963 45.2234C102.26 45.1859 102.589 45.1672 102.949 45.1672V44.889C102.949 44.7797 102.93 44.6859 102.896 44.6046C102.861 44.5234 102.798 44.4609 102.709 44.414C102.621 44.3671 102.497 44.3421 102.339 44.3421C102.181 44.3421 102.052 44.3609 101.954 44.3984C101.856 44.4359 101.786 44.4859 101.745 44.5453C101.704 44.6046 101.685 44.6703 101.685 44.7422V44.8265H100.714C100.708 44.8015 100.708 44.7797 100.708 44.7578V44.6765C100.708 44.4577 100.774 44.2702 100.91 44.1108C101.043 43.9514 101.233 43.8296 101.479 43.7452C101.726 43.6608 102.01 43.617 102.336 43.617C102.687 43.617 102.981 43.6608 103.218 43.7514C103.455 43.8421 103.638 43.9733 103.765 44.1483C103.891 44.3234 103.955 44.5453 103.955 44.8109V46.5111C103.955 46.5955 103.98 46.658 104.03 46.6986C104.081 46.7392 104.138 46.758 104.201 46.758H104.438V47.4049C104.391 47.4299 104.315 47.4549 104.214 47.4799C104.113 47.5049 103.989 47.5174 103.847 47.5174C103.705 47.5174 103.585 47.4987 103.477 47.4581C103.37 47.4174 103.278 47.3612 103.209 47.2862C103.136 47.2143 103.085 47.1236 103.057 47.0205H103.006C102.924 47.1205 102.826 47.208 102.709 47.283C102.592 47.358 102.456 47.4174 102.298 47.4612C102.143 47.5049 101.963 47.5237 101.761 47.5237L101.754 47.5299ZM102.093 46.783C102.225 46.783 102.346 46.7642 102.453 46.7236C102.557 46.683 102.646 46.6298 102.719 46.5611C102.791 46.4923 102.848 46.4079 102.886 46.3079C102.927 46.2079 102.946 46.1017 102.946 45.9892V45.7829C102.677 45.7829 102.437 45.8016 102.229 45.836C102.017 45.8704 101.852 45.9329 101.729 46.0173C101.606 46.1017 101.546 46.2204 101.546 46.3736C101.546 46.458 101.568 46.533 101.612 46.5955C101.656 46.658 101.717 46.7049 101.799 46.7361C101.881 46.7705 101.979 46.7861 102.093 46.7861V46.783Z" fill="#01508B"/>
<path d="M106.196 47.5299C105.956 47.5299 105.763 47.4862 105.614 47.4018C105.466 47.3174 105.358 47.2018 105.292 47.058C105.225 46.9142 105.191 46.7548 105.191 46.5767V44.464H104.723V43.7045H105.225L105.412 42.6388H106.19V43.7045H106.879V44.464H106.19V46.4111C106.19 46.5236 106.215 46.6111 106.269 46.6705C106.322 46.7298 106.408 46.758 106.528 46.758H106.882V47.4112C106.825 47.4299 106.759 47.4487 106.68 47.4643C106.604 47.4799 106.521 47.4955 106.436 47.508C106.351 47.5205 106.272 47.5268 106.199 47.5268L106.196 47.5299Z" fill="#01508B"/>
<path d="M107.672 43.1576V42.3044H108.671V43.1576H107.672ZM107.672 47.4455V43.7077H108.671V47.4455H107.672Z" fill="#01508B"/>
<path d="M111.475 47.5299C111.064 47.5299 110.713 47.4612 110.425 47.3205C110.138 47.1799 109.92 46.9643 109.771 46.6736C109.623 46.3829 109.547 46.0173 109.547 45.5766C109.547 45.1359 109.623 44.7578 109.771 44.4702C109.92 44.1827 110.138 43.9702 110.425 43.8295C110.713 43.6889 111.064 43.6201 111.475 43.6201C111.886 43.6201 112.249 43.6889 112.534 43.8295C112.818 43.9702 113.037 44.1827 113.185 44.4702C113.334 44.7578 113.41 45.1266 113.41 45.5766C113.41 46.0267 113.334 46.3829 113.185 46.6736C113.037 46.9643 112.818 47.1799 112.534 47.3205C112.249 47.4612 111.895 47.5299 111.475 47.5299ZM111.475 46.7611C111.696 46.7611 111.87 46.7205 112.003 46.6392C112.136 46.558 112.231 46.4361 112.294 46.2704C112.357 46.1048 112.389 45.9016 112.389 45.6579V45.486C112.389 45.2453 112.357 45.039 112.294 44.8734C112.231 44.7078 112.136 44.5828 112.003 44.5015C111.87 44.4171 111.696 44.3765 111.475 44.3765C111.254 44.3765 111.086 44.4171 110.953 44.5015C110.821 44.5859 110.726 44.7078 110.663 44.8734C110.599 45.039 110.571 45.2422 110.571 45.486V45.6579C110.571 45.8985 110.603 46.1048 110.663 46.2704C110.726 46.4361 110.821 46.5611 110.953 46.6392C111.086 46.7173 111.26 46.7611 111.475 46.7611Z" fill="#01508B"/>
<path d="M114.285 47.4455V43.7076H115.113L115.192 44.2202H115.243C115.328 44.0983 115.433 43.9889 115.556 43.9014C115.679 43.8139 115.815 43.742 115.97 43.6951C116.125 43.6483 116.293 43.6233 116.473 43.6233C116.723 43.6233 116.941 43.667 117.127 43.7576C117.314 43.8483 117.459 43.9889 117.563 44.1827C117.668 44.3765 117.718 44.6296 117.718 44.9421V47.4455H116.719V45.0984C116.719 44.9797 116.704 44.8796 116.675 44.7953C116.647 44.7109 116.606 44.6421 116.549 44.589C116.495 44.5359 116.425 44.4952 116.343 44.4702C116.261 44.4452 116.169 44.4358 116.071 44.4358C115.923 44.4358 115.79 44.4702 115.67 44.5421C115.55 44.614 115.458 44.7109 115.388 44.8328C115.322 44.9546 115.287 45.0984 115.287 45.2578V47.4393H114.288L114.285 47.4455Z" fill="#01508B"/>
<path d="M122.605 47.5299C122.093 47.5299 121.654 47.4424 121.29 47.2643C120.927 47.0861 120.649 46.8111 120.459 46.4361C120.269 46.061 120.174 45.586 120.174 45.0078C120.174 44.1546 120.386 43.5201 120.81 43.1076C121.233 42.6919 121.831 42.4857 122.602 42.4857C123.023 42.4857 123.402 42.5575 123.737 42.6982C124.072 42.8388 124.338 43.0545 124.531 43.3389C124.723 43.6233 124.821 43.9796 124.821 44.4108H123.743C123.743 44.1827 123.696 43.9921 123.604 43.8358C123.513 43.6795 123.38 43.5608 123.209 43.4764C123.039 43.392 122.843 43.3514 122.615 43.3514C122.308 43.3514 122.055 43.4108 121.856 43.5295C121.657 43.6483 121.512 43.8233 121.417 44.0514C121.325 44.2827 121.278 44.5609 121.278 44.8953V45.1172C121.278 45.4578 121.325 45.7454 121.423 45.9735C121.518 46.2048 121.663 46.3767 121.859 46.4923C122.052 46.608 122.305 46.6673 122.612 46.6673C122.852 46.6673 123.061 46.6267 123.238 46.5455C123.415 46.4642 123.551 46.3454 123.649 46.1892C123.743 46.0329 123.791 45.8423 123.791 45.6141H124.828C124.828 46.0454 124.733 46.4017 124.543 46.6861C124.354 46.9705 124.091 47.183 123.756 47.3237C123.421 47.4643 123.039 47.5331 122.605 47.5331V47.5299Z" fill="#01508B"/>
<path d="M126.272 48.78C126.095 48.78 125.947 48.7675 125.83 48.7425C125.713 48.7175 125.637 48.6988 125.602 48.6894V48.0206H126.042C126.162 48.0206 126.269 47.9925 126.364 47.9393C126.459 47.8862 126.544 47.8143 126.617 47.7268C126.69 47.6393 126.74 47.5455 126.775 47.4455L125.292 43.7076H126.348L126.996 45.436C127.025 45.5172 127.056 45.6172 127.094 45.7391C127.132 45.861 127.167 45.986 127.205 46.1173C127.243 46.2485 127.274 46.3611 127.3 46.4611H127.335C127.353 46.3954 127.376 46.3173 127.401 46.2267C127.426 46.136 127.451 46.0454 127.477 45.9485C127.502 45.8547 127.531 45.7641 127.556 45.6735C127.581 45.586 127.606 45.5078 127.625 45.4422L128.166 43.7076H129.171L127.885 47.2705C127.812 47.4799 127.73 47.6737 127.635 47.8581C127.54 48.0394 127.433 48.2019 127.306 48.3425C127.18 48.4831 127.034 48.5925 126.864 48.6707C126.693 48.7488 126.497 48.7894 126.269 48.7894L126.272 48.78Z" fill="#01508B"/>
<path d="M131.918 47.5299C131.675 47.5299 131.45 47.4799 131.245 47.383C131.039 47.2862 130.878 47.1393 130.752 46.9392H130.701L130.622 47.4455H129.803V42.3044H130.802V44.1171H130.847C130.922 44.0077 131.017 43.9171 131.128 43.8389C131.239 43.7639 131.362 43.7077 131.501 43.6733C131.64 43.6389 131.792 43.6201 131.953 43.6201C132.25 43.6201 132.509 43.6889 132.734 43.8264C132.958 43.9639 133.129 44.1765 133.255 44.464C133.379 44.7515 133.442 45.1203 133.442 45.5704C133.442 46.0204 133.382 46.3892 133.259 46.6798C133.135 46.9705 132.961 47.183 132.734 47.3237C132.506 47.4643 132.234 47.5331 131.918 47.5331V47.5299ZM131.608 46.7205C131.811 46.7205 131.969 46.683 132.086 46.6017C132.203 46.5236 132.288 46.4048 132.342 46.2485C132.396 46.0923 132.421 45.8954 132.421 45.6579V45.4953C132.421 45.2578 132.396 45.0609 132.342 44.9015C132.288 44.7421 132.203 44.6234 132.086 44.5452C131.969 44.4671 131.808 44.4265 131.608 44.4265C131.463 44.4265 131.343 44.4515 131.242 44.5015C131.141 44.5515 131.058 44.6234 130.995 44.714C130.929 44.8078 130.881 44.9203 130.847 45.0578C130.812 45.1953 130.796 45.3485 130.796 45.5141V45.6422C130.796 45.8641 130.824 46.0579 130.881 46.2173C130.938 46.3798 131.027 46.5017 131.147 46.5861C131.267 46.6705 131.422 46.7142 131.608 46.7142V46.7205Z" fill="#01508B"/>
<path d="M136.037 47.5299C135.62 47.5299 135.269 47.4612 134.988 47.3205C134.706 47.1799 134.491 46.9674 134.349 46.6767C134.207 46.3861 134.134 46.0204 134.134 45.5735C134.134 45.1266 134.207 44.7547 134.349 44.4671C134.491 44.1796 134.706 43.9671 134.985 43.8264C135.266 43.6858 135.61 43.617 136.015 43.617C136.398 43.617 136.723 43.6858 136.986 43.8202C137.248 43.9546 137.447 44.164 137.583 44.4452C137.716 44.7265 137.785 45.0922 137.785 45.536V45.7923H135.146C135.155 46.011 135.19 46.1954 135.25 46.3454C135.31 46.4955 135.405 46.6111 135.531 46.683C135.658 46.758 135.829 46.7924 136.037 46.7924C136.151 46.7924 136.255 46.7767 136.35 46.7486C136.445 46.7205 136.524 46.6767 136.59 46.6205C136.657 46.5642 136.71 46.4923 136.748 46.4079C136.786 46.3236 136.805 46.2267 136.805 46.1173H137.782C137.782 46.3548 137.738 46.5611 137.653 46.7361C137.567 46.9111 137.447 47.058 137.292 47.1737C137.137 47.2893 136.954 47.3768 136.742 47.4362C136.53 47.4956 136.293 47.5237 136.034 47.5237L136.037 47.5299ZM135.162 45.1703H136.758C136.758 45.0266 136.739 44.9047 136.704 44.8015C136.669 44.6984 136.619 44.6109 136.556 44.5453C136.492 44.4796 136.417 44.4296 136.328 44.3984C136.239 44.3671 136.138 44.3515 136.031 44.3515C135.848 44.3515 135.696 44.3827 135.576 44.439C135.456 44.4953 135.361 44.589 135.294 44.7078C135.228 44.8265 135.187 44.9828 135.162 45.1672V45.1703Z" fill="#01508B"/>
<path d="M138.664 47.4456V43.7077H139.492L139.571 44.2921H139.622C139.669 44.1702 139.733 44.0577 139.808 43.9546C139.884 43.8514 139.982 43.7702 140.096 43.7108C140.21 43.6483 140.346 43.617 140.498 43.617C140.58 43.617 140.652 43.6264 140.722 43.642C140.788 43.6577 140.839 43.6733 140.874 43.6889V44.5859H140.564C140.415 44.5859 140.286 44.6046 140.172 44.6453C140.058 44.6859 139.963 44.7484 139.887 44.8328C139.812 44.9172 139.755 45.0234 139.717 45.1453C139.682 45.2672 139.663 45.4141 139.663 45.5797V47.4487H138.664V47.4456Z" fill="#01508B"/>
<path d="M142.53 47.4455L144.427 42.57H145.751L147.648 47.4455H146.491L146.14 46.4861H143.991L143.64 47.4455H142.533H142.53ZM144.3 45.6329H145.83L145.391 44.4327C145.372 44.3796 145.35 44.3171 145.321 44.2452C145.296 44.1733 145.268 44.0889 145.239 44.0014C145.211 43.9139 145.182 43.8233 145.157 43.7358C145.132 43.6483 145.107 43.5701 145.081 43.4983H145.037C145.012 43.5889 144.983 43.6952 144.942 43.8139C144.904 43.9358 144.866 44.0514 144.828 44.1608C144.79 44.2733 144.759 44.364 144.737 44.4359L144.297 45.636L144.3 45.6329Z" fill="#01508B"/>
<path d="M148.385 47.4455V42.57H149.456V47.4455H148.385Z" fill="#01508B"/>
</g>
<defs>
<clipPath id="clip0_2_2">
<rect width="150" height="60" fill="white"/>
</clipPath>
</defs>
</svg>
